<?xml version="1.0" encoding="utf-8"?>
<!-- Generator: Adobe Illustrator 16.0.0, SVG Export Plug-In . SVG Version: 6.00 Build 0)  -->
<!DOCTYPE svg PUBLIC "-//W3C//DTD SVG 1.1//EN" "http://www.w3.org/Graphics/SVG/1.1/DTD/svg11.dtd">
<svg version="1.1" id="Capa_1" xmlns="http://www.w3.org/2000/svg" xmlns:xlink="http://www.w3.org/1999/xlink" x="0px" y="0px"
	 width="988.366px" height="988.365px" fill="rgb(152, 2, 2)" viewBox="0 0 988.366 988.365" style="enable-background:new 0 0 988.366 988.365;"
	 xml:space="preserve">
<g>
	<path d="M791.836,193.665c0,0-15.899,91.1-29.3,168.7c-6.8,33.5-11.899,58.8-11.899,58.8c-6.801,29.4-45,30-43,0
		c0,0,24-316.5,24-317.1c4.399-65.6-96.301-75.6-100.9,0c0,0-25.9,315.7-26,317.1c-2.2,27.2-40,28.3-40,0c0,0-6-370.3-6-371.1
		c0-67.7-100.9-65.8-100.9,0c0,0,5,369.7,5,371.1c0.4,30.2-49,25.2-49,0l-39.699-303.2c-0.101-0.9-0.2-1.4-0.2-1.4
		c-9.8-64.6-103-57.2-99.2,7c0,0.9,48.2,497,48.2,497c0,24.2-19.2,53.8-35.8,38.7c-15-13.601-90-164.801-90.7-166.2
		c-11-19-34.9-35.2-56.7-37.8c-29.5-3.4-46.2,26.5-34.4,52.6l137.4,304.2c17.3,30.5,46.2,69.399,82.7,89.5l33.399,18.399
		l0.101,0.101c0.8,0.8,1.3,1.899,1.7,2.7l-0.601,36.3c0,16.2,14.2,29.3,30.3,29.3h386c16.2,0,29.301-13.1,29.301-29.3v-31.5
		l1.699-1.5c25.2-21.601,29-87.2,29-87.2s15.9-203.4,29.7-381.1c6.9-85.601,20.5-256.601,20.601-257
		C891.637,137.465,805.037,123.865,791.836,193.665z"/>
</g>
</svg>
