<?xml version="1.0" encoding="utf-8"?>
<!-- Generator: Adobe Illustrator 19.0.0, SVG Export Plug-In . SVG Version: 6.00 Build 0)  -->
<svg version="1.1" id="Layer_1" xmlns="http://www.w3.org/2000/svg" xmlns:xlink="http://www.w3.org/1999/xlink" x="0px" y="0px"
	 fill="rgb(152, 2, 2)" viewBox="0 0 485 485" style="enable-background:new 0 0 485 485;" xml:space="preserve">
<path d="M398.5,69.429c-18.778,0-34,15.222-34,34v137.75h-10V67.143c0-18.778-15.222-34-34-34s-34,15.222-34,34v174.035h-10V34
	c0-18.778-15.222-34-34-34c-18.778,0-34,15.222-34,34v207.178h-10V67.143c0-18.778-15.222-34-34-34c-18.778,0-34,15.222-34,34
	v264.035h-10v-96c0-18.778-15.222-34-34-34s-34,15.222-34,34V354c0,72.233,58.766,131,131,131h118c72.233,0,131-58.767,131-131
	V103.429C432.5,84.651,417.278,69.429,398.5,69.429z"/>
</svg>
