<?xml version="1.0" encoding="UTF-8"?>
<svg version="1.1" id="Capa_1" xmlns="http://www.w3.org/2000/svg" xmlns:xlink="http://www.w3.org/1999/xlink" x="0px" y="0px" viewBox="0 0 20.633 20.633" fill="rgb(152, 2, 2)" style="enable-background:new 0 0 20.633 20.633;" xml:space="preserve">
   <g id="g20" transform="translate(-2)">
      <path d="M 15.621,9.844 5.971,0.195 C 5.842,0.064 5.674,0 5.5,0 5.329,0 5.157,0.064 5.027,0.195 L 5.014,0.207 C 4.888,0.334 4.817,0.506 4.817,0.682 v 4.682 c 0,0.178 0.071,0.348 0.197,0.471 l 4.481,4.482 -4.481,4.479 C 4.888,14.922 4.817,15.09 4.817,15.271 v 4.68 c 0,0.18 0.071,0.354 0.197,0.475 l 0.013,0.01 c 0.124,0.127 0.294,0.197 0.473,0.197 0.179,0 0.348,-0.07 0.474,-0.197 l 9.647,-9.646 c 0.26,-0.259 0.26,-0.686 0,-0.946 z" id="path18"/>
   </g>
   <ellipse style="fill:#980000;fill-opacity:1;fill-rule:evenodd;stroke-width:0.692023" id="path129" cx="10.165794" cy="19.350513" ry="1.2733326" rx="1.3431172"/>
   <ellipse style="fill:#980000;fill-opacity:1;fill-rule:evenodd;stroke-width:0.692023" id="path129-4" cx="14.716485" cy="19.350513" rx="1.3431172" ry="1.2733326"/>
   <ellipse style="fill:#980000;fill-opacity:1;fill-rule:evenodd;stroke-width:0.692023" id="path129-4-5" cx="19.267176" cy="19.350513" rx="1.3431172" ry="1.2733326"/>
</svg>
