<?xml version="1.0" encoding="UTF-8" standalone="no"?>
<svg
   xmlns:dc="http://purl.org/dc/elements/1.1/"
   xmlns:cc="http://creativecommons.org/ns#"
   xmlns:rdf="http://www.w3.org/1999/02/22-rdf-syntax-ns#"
   xmlns:svg="http://www.w3.org/2000/svg"
   xmlns="http://www.w3.org/2000/svg"
   xmlns:sodipodi="http://sodipodi.sourceforge.net/DTD/sodipodi-0.dtd"
   xmlns:inkscape="http://www.inkscape.org/namespaces/inkscape"
   version="1.0"
   width="20.000000pt"
   height="17.000000pt"
   viewBox="0 0 20.000000 17.000000"
   preserveAspectRatio="xMidYMid meet"
   id="svg8"
   sodipodi:docname="img_placeholder.svg"
   inkscape:version="0.92.3 (2405546, 2018-03-11)">
  <metadata
     id="metadata14">
    <rdf:RDF>
      <cc:Work
         rdf:about="">
        <dc:format>image/svg+xml</dc:format>
        <dc:type
           rdf:resource="http://purl.org/dc/dcmitype/StillImage" />
        <dc:title></dc:title>
      </cc:Work>
    </rdf:RDF>
  </metadata>
  <defs
     id="defs12" />
  <sodipodi:namedview
     pagecolor="#ffffff"
     bordercolor="#666666"
     borderopacity="1"
     objecttolerance="10"
     gridtolerance="10"
     guidetolerance="10"
     inkscape:pageopacity="0"
     inkscape:pageshadow="2"
     inkscape:window-width="1725"
     inkscape:window-height="920"
     id="namedview10"
     showgrid="false"
     inkscape:zoom="10.411765"
     inkscape:cx="1.3757062"
     inkscape:cy="11.333333"
     inkscape:window-x="88"
     inkscape:window-y="42"
     inkscape:window-maximized="0"
     inkscape:current-layer="svg8" />
  <g
     transform="translate(0.000000,17.000000) scale(0.100000,-0.100000)"
     fill="#000000"
     stroke="none"
     id="g6">
    <path
       d="M38 162 c-34 -4 -41 -26 -33 -97 l7 -55 89 0 89 0 0 74 0 74 -62 4 c-35 1 -75 2 -90 0z m140 -79 l3 -63 -81 0 -80 0 0 65 0 66 78 -3 77 -3 3 -62z"
       id="path2" />
    <path
       d="M53 105 c-7 -8 -13 -23 -13 -35 0 -18 6 -20 65 -20 36 0 65 4 65 9 0 13 -28 33 -38 27 -5 -3 -17 3 -27 14 -21 23 -35 25 -52 5z"
       id="path4" />
  </g>
</svg>
