<svg id="Layer_1" data-name="Layer 1" xmlns="http://www.w3.org/2000/svg" viewBox="0 0 360.67 394.67"><defs><style>.cls-1{fill:#fff;}</style></defs><title>Artboard 1</title><path class="cls-1" d="M87.27,226.9c3.37,6.07,10.64,12.59,23.66,12.59,14.22,0,25.51-6.85,25.51-21.38,0-12.49-9.33-18.56-18.46-24-7.82-4.66-15.09-9-15.09-16.83,0-7,5-11.07,11.95-11.07,8.57,0,15.09,5.54,18.66,13.79h.33l-.54-16.06c-4.35-2.06-11.07-3.14-17-3.14-15.52,0-25.72,7.48-25.72,20,0,12,9.23,17.56,18.12,23,7.71,4.67,14.43,9.23,14.43,17.47,0,8.9-6.83,12.14-15.19,12.14a27.75,27.75,0,0,1-19.2-7.91Zm62.5,11.28h47.87l.87-15h-.33c-3.25,7.49-10.2,9.24-20.4,9.24h-4.33c-6.19,0-9.78-.21-9.78-4.13V162.2H148v.43c1.3,2,1.74,6.72,1.74,8Zm55.84-11.28c3.36,6.07,10.64,12.59,23.67,12.59,14.21,0,25.51-6.85,25.51-21.38,0-12.49-9.34-18.56-18.45-24-7.82-4.66-15.08-9-15.08-16.83,0-7,5-11.07,11.93-11.07,8.59,0,15.09,5.54,18.68,13.79h.31l-.54-16.06c-4.34-2.06-11.08-3.14-17-3.14-15.52,0-25.72,7.48-25.72,20,0,12,9.23,17.56,18.13,23,7.7,4.67,14.44,9.23,14.44,17.47,0,8.9-6.85,12.14-15.19,12.14A27.76,27.76,0,0,1,207,225.48Z"/><path class="cls-1" d="M71.67,119.11c1.58-1.71,3.23-2.9,3.78-4.1,7.76-3,15.35-6.45,19.78-11.35a27,27,0,0,0,1.63-2.4c1.74-2.42,4.36-5.72,8.5-6.68,7.54-1.7,14.79.9,20.89,2.42,1.73-.33,3.12-1.34,4.64-1.85,12.1-4,23.91-.54,36.11-2.86,3.27-.63,10.44-1.89,11.06-4.48a4.88,4.88,0,0,0-.36-2.46,31.11,31.11,0,0,1-8.44-2.75,43.39,43.39,0,0,1-7.31-4.69c-3.69-2.64-8.45-3-11.9-6,7.46-1.56,16.14-5.14,23.29-5.63A19.6,19.6,0,0,1,183.64,68c6.07,3.81,9.64,12,15.29,16.46,5.83,2.53,11.73,4.89,17.45,7.58,4.65,0,10.13.25,15.36.28,3,0,6.31,1,7.43-2.16-.41-2.93-2.66-3.29-4.73-4.62a34.09,34.09,0,0,1-3.79-2.91,46.93,46.93,0,0,1-6.47-7.8,5.86,5.86,0,0,0-.43-.48c-3.31-3.49-8.68-4.9-11.28-8.77a49.65,49.65,0,0,1,27.06,3.94c5,2.27,8.37,4.38,10.5,11.54a28.67,28.67,0,0,1,.67,3.59c.17,1.17.13,3,.83,3.72a61,61,0,0,1,7.55,9c6.68,10.06,12.93,21.68,26.17,20.36a3.62,3.62,0,0,0,.31-2.82c-.26-.65-1-.89-1.45-1.43-4.62-5.15-5.75-14.94-7.33-23.42,4,.37,8,4.68,10.11,8.46,4.1,7.35,6.5,16.46,11.31,22.38a24.67,24.67,0,0,0,3,3.41c.34.33,1,.39,1.24.72a17,17,0,0,1,1.14,2c5.94,8.54,16.69,8.76,25.62,13.24,1-.23,1.33-.82,1.93-1.28q-.6-2.18-1.18-4.36c-3.69-10.57-9-21.46-14.41-29A23.4,23.4,0,0,0,308,98.47a53.51,53.51,0,0,0-12.52-5,32.35,32.35,0,0,1-8.45-3.33,18.4,18.4,0,0,0-8.52-7.55c-1.07-1.86-2.79-2.58-4.2-3.86,3.39.63,6.18,2.58,9.38,4,2.94,1.27,6.53,3,10.46,2.33a11.92,11.92,0,0,1,3.18-.54c2.7.34,4.86,3.29,7.5,3.73A7,7,0,0,0,308.12,87c-.69-1.23-2-1.85-3-2.81-2.89-2.85-4.91-6.66-7.42-10.25,2.8-3.94,13.56-2.57,13.88-7.95-.1-.38-.19-.76-.29-1.14C299,60.06,283.49,61,271.73,55.46c-4.09-.82-9.48-.38-14.9,1.41-7.23,2.38-14.28,4.15-19.14,1.35,8.06-4.86,13.36-11.29,19.06-17.51a4.21,4.21,0,0,0-2.3-3.46,13.53,13.53,0,0,0-6,1.16c-11.7-3-27.35-.06-40.49,5.11a37.4,37.4,0,0,0-4.64,1.84c-1.33.77-2.23,2.38-3.46,3.5a69.63,69.63,0,0,1-8.29,6.29,24.74,24.74,0,0,1-4.66,2.93c-1.25.42-3,.15-4.59.32a36.5,36.5,0,0,0-10,2.37c7.67-8.73,14-18.26,13.6-31.61a24.07,24.07,0,0,1-2.73,1.63c-3.21,1.43-7.16,1.55-10.47,2.65-1.77.61-3.74,1.5-5.46,2.23-3.86,1.61-6.51,4.7-10.21,5.91-.57-5.63-3.16-11.12-4.8-16.25l-1,.26c-4.52,4.57-9.52,8.37-13.64,14a30,30,0,0,0-5.6,13c-.23,1.6-.36,4.38.14,5.56.35.84,1.69.89,2.05,2,.55,1.72-1.71,3.73-2.6,4.92a11.35,11.35,0,0,0-2.39,5.18c-5.09.75-8.71,3.26-11.89,5.3a41.36,41.36,0,0,0-4.39,2.82c-3.37,2.91-5.24,7.84-10.48,8.87.11-1.43,1.56-2.19,2.32-3.2,1-1.39,1.42-3,2.31-4.38,1.63-8.63.13-19.06,7.87-24.18.32-1.81.67-5.3-1.3-6.61a79.12,79.12,0,0,0-22,15A46.21,46.21,0,0,0,81.07,78.42c-.43.92-.68,1.9-1.05,2.85-.82,2.06-2.1,4.07-2.8,5.9-1.34,3.37-1.31,7.31-1.3,11.52,0,4-.28,8.06-1.52,11.3-.34.91-1.15,2.34-1.84,4.44Z"/><path class="cls-1" d="M276.76,284.67c-1.58,1.71-3.24,2.91-3.78,4.11-7.75,2.94-15.36,6.44-19.78,11.34a25.68,25.68,0,0,0-1.63,2.39c-1.73,2.41-4.35,5.72-8.5,6.67-7.55,1.71-14.77-.9-20.89-2.42-1.74.33-3.12,1.36-4.64,1.85-12.1,4-23.93.54-36.11,2.88-3.26.61-10.44,1.88-11.06,4.46a4.89,4.89,0,0,0,.37,2.47,32.55,32.55,0,0,1,8.44,2.73,44.91,44.91,0,0,1,7.29,4.71c3.71,2.65,8.46,3,11.91,6-7.46,1.57-16.12,5.14-23.29,5.64a19.57,19.57,0,0,1-10.31-1.78c-6.06-3.8-9.62-11.94-15.3-16.46-5.8-2.51-11.71-4.86-17.43-7.55-4.65,0-10.13-.27-15.35-.3-3,0-6.32-1-7.43,2.15.41,3,2.65,3.3,4.71,4.64a33.16,33.16,0,0,1,3.81,2.91,47.15,47.15,0,0,1,6.47,7.79,3.29,3.29,0,0,0,.43.48c3.3,3.49,8.67,4.91,11.27,8.78a50,50,0,0,1-27.06-3.94c-5-2.29-8.37-4.38-10.51-11.53a32.17,32.17,0,0,1-.66-3.61c-.16-1.16-.12-3-.84-3.71a60.58,60.58,0,0,1-7.55-9C82.68,296.33,76.42,284.7,63.19,286a3.59,3.59,0,0,0-.32,2.81c.27.67,1,.91,1.44,1.42,4.62,5.16,5.77,14.93,7.34,23.44-4-.38-8-4.69-10.14-8.48-4.08-7.34-6.48-16.43-11.27-22.36a26,26,0,0,0-3-3.42c-.35-.31-.95-.39-1.26-.74a16,16,0,0,1-1.14-1.94c-5.93-8.53-16.67-8.77-25.61-13.25-1,.21-1.33.82-1.93,1.27.4,1.45.78,2.93,1.17,4.39,3.7,10.57,9,21.42,14.4,28.93a23.61,23.61,0,0,0,7.53,7.19,54.08,54.08,0,0,0,12.52,5,30.93,30.93,0,0,1,8.44,3.33,18.51,18.51,0,0,0,8.52,7.55c1.07,1.85,2.8,2.58,4.22,3.85-3.39-.62-6.19-2.57-9.38-4-2.94-1.29-6.53-3-10.46-2.33a13.07,13.07,0,0,1-3.18.55c-2.71-.35-4.85-3.3-7.5-3.75a7.1,7.1,0,0,0-3.27,1.33c.68,1.25,2,1.85,3,2.81,2.91,2.85,4.92,6.68,7.43,10.27-2.82,3.92-13.56,2.56-13.89,8,.09.38.2.75.31,1.13,12.23,4.75,27.76,3.79,39.53,9.35,4.09.82,9.48.38,14.9-1.42,7.22-2.38,14.27-4.14,19.13-1.35-8.06,4.86-13.37,11.29-19.05,17.52A4.17,4.17,0,0,0,94,366.51a13.28,13.28,0,0,0,6-1.15c11.71,2.93,27.34,0,40.49-5.11a37,37,0,0,0,4.66-1.85c1.32-.75,2.21-2.38,3.46-3.5a74.22,74.22,0,0,1,8.28-6.3,24.3,24.3,0,0,1,4.65-2.91c1.27-.42,3-.17,4.61-.33A36.24,36.24,0,0,0,176.1,343c-7.67,8.75-14,18.24-13.6,31.64a20.54,20.54,0,0,1,2.74-1.66c3.2-1.42,7.15-1.55,10.47-2.66,1.76-.59,3.73-1.51,5.45-2.2,3.86-1.61,6.52-4.71,10.21-5.91.58,5.62,3.17,11.09,4.8,16.23l1-.26c4.52-4.55,9.52-8.37,13.64-13.93a30.11,30.11,0,0,0,5.59-13c.21-1.61.38-4.39-.12-5.55-.37-.85-1.7-.9-2.06-2-.55-1.73,1.69-3.74,2.61-5a11.78,11.78,0,0,0,2.4-5.17c5.08-.74,8.69-3.27,11.87-5.28a42.52,42.52,0,0,0,4.38-2.84c3.38-2.91,5.26-7.83,10.48-8.84-.1,1.41-1.56,2.15-2.31,3.16-1,1.38-1.41,3-2.31,4.41-1.63,8.63-.14,19.07-7.88,24.18-.32,1.78-.66,5.3,1.31,6.6a79.43,79.43,0,0,0,22-15,46.23,46.23,0,0,0,10.58-14.63c.43-.91.67-1.88,1-2.85.83-2.05,2.1-4.07,2.82-5.88,1.32-3.38,1.3-7.34,1.29-11.54,0-4,.29-8.05,1.52-11.28.35-.92,1.16-2.35,1.85-4.44Z"/></svg>