<?xml version="1.0" encoding="utf-8"?>
<!-- Generator: Adobe Illustrator 14.0.0, SVG Export Plug-In . SVG Version: 6.00 Build 43363)  -->
<!DOCTYPE svg PUBLIC "-//W3C//DTD SVG 1.1//EN" "http://www.w3.org/Graphics/SVG/1.1/DTD/svg11.dtd">
<svg version="1.1" id="Layer_1" xmlns="http://www.w3.org/2000/svg" xmlns:xlink="http://www.w3.org/1999/xlink" x="0px" y="0px"
	 width="128px" height="128px" viewBox="0 0 128 128" enable-background="new 0 0 128 128" xml:space="preserve">
<title>SLSVit</title>
<path fill="#FFFFFF" d="M32.482,73.07c1.222,2.199,3.857,4.563,8.577,4.563c5.155,0,9.248-2.483,9.248-7.751
	c0-4.527-3.382-6.728-6.692-8.699c-2.835-1.689-5.47-3.263-5.47-6.101c0-2.538,1.812-4.013,4.332-4.013
	c3.106,0,5.47,2.008,6.764,4.999h0.12l-0.196-5.822c-1.577-0.747-4.013-1.138-6.163-1.138c-5.626,0-9.324,2.711-9.324,7.25
	c0,4.35,3.346,6.366,6.569,8.337c2.795,1.693,5.231,3.347,5.231,6.334c0,3.227-2.476,4.4-5.506,4.4
	c-2.604-0.02-5.099-1.047-6.96-2.867L32.482,73.07z M55.139,77.158h17.354l0.314-5.438h-0.119c-1.178,2.716-3.697,3.35-7.395,3.35
	h-1.57c-2.244,0-3.545-0.076-3.545-1.496V49.616h-5.68v0.156c0.471,0.725,0.631,2.437,0.631,2.9L55.139,77.158z M75.381,73.07
	c1.218,2.199,3.857,4.563,8.58,4.563c5.151,0,9.248-2.483,9.248-7.751c0-4.527-3.387-6.728-6.688-8.699
	c-2.835-1.689-5.467-3.263-5.467-6.101c0-2.538,1.813-4.013,4.325-4.013c3.113,0,5.47,2.008,6.771,4.999h0.112l-0.196-5.822
	c-1.572-0.747-4.016-1.138-6.162-1.138c-5.626,0-9.324,2.711-9.324,7.25c0,4.35,3.347,6.366,6.572,8.337
	c2.792,1.693,5.234,3.347,5.234,6.334c0,3.227-2.482,4.4-5.506,4.4c-2.617-0.012-5.127-1.043-6.996-2.875L75.381,73.07z"/>
<path fill="#FFFFFF" d="M26.827,33.996c0.573-0.62,1.171-1.051,1.37-1.486c2.813-1.087,5.564-2.338,7.17-4.114
	c0.212-0.279,0.41-0.57,0.591-0.87c0.631-0.877,1.581-2.074,3.082-2.421c2.733-0.616,5.361,0.326,7.572,0.877
	c0.627-0.12,1.131-0.485,1.682-0.67c4.386-1.45,8.667-0.196,13.09-1.037c1.185-0.229,3.784-0.686,4.01-1.624
	c0.033-0.304-0.012-0.611-0.131-0.892c-1.062-0.184-2.093-0.52-3.06-0.997c-0.938-0.477-1.826-1.046-2.65-1.7
	c-1.337-0.957-3.063-1.087-4.313-2.175c2.704-0.565,5.851-1.863,8.442-2.041c1.278-0.134,2.569,0.082,3.733,0.623
	c2.201,1.381,3.495,4.35,5.543,5.967c2.113,0.917,4.252,1.773,6.326,2.748c1.686,0,3.672,0.091,5.568,0.102
	c1.087,0,2.287,0.362,2.693-0.783c-0.148-1.062-0.965-1.192-1.715-1.675c-0.482-0.319-0.941-0.671-1.374-1.055
	c-0.882-0.855-1.668-1.803-2.346-2.828c-0.048-0.061-0.101-0.119-0.155-0.174c-1.2-1.265-3.146-1.776-4.09-3.179
	c3.34-0.452,6.738,0.043,9.81,1.428c1.812,0.823,3.034,1.588,3.807,4.183c0.108,0.428,0.189,0.863,0.243,1.302
	c0.061,0.424,0.047,1.087,0.301,1.348c1.015,0.997,1.932,2.09,2.736,3.263c2.422,3.647,4.688,7.859,9.486,7.38
	c0.176-0.311,0.217-0.68,0.113-1.022c-0.095-0.236-0.363-0.323-0.525-0.519c-1.676-1.867-2.085-5.416-2.658-8.49
	c1.451,0.134,2.9,1.696,3.666,3.067c1.486,2.664,2.355,5.967,4.1,8.113c0.323,0.444,0.688,0.858,1.088,1.236
	c0.123,0.12,0.361,0.142,0.449,0.261c0.153,0.232,0.291,0.474,0.412,0.725c2.154,3.096,6.051,3.175,9.288,4.799
	c0.362-0.083,0.481-0.297,0.7-0.464c-0.146-0.527-0.288-1.054-0.428-1.581c-1.338-3.832-3.264-7.779-5.225-10.513
	c-0.705-1.059-1.639-1.946-2.732-2.595c-1.432-0.793-2.956-1.402-4.539-1.812c-1.072-0.256-2.104-0.663-3.062-1.208
	c-0.715-1.216-1.797-2.174-3.09-2.737c-0.387-0.674-1.011-0.935-1.521-1.399c1.229,0.229,2.24,0.936,3.4,1.45
	c1.065,0.46,2.367,1.087,3.791,0.845c0.374-0.117,0.762-0.183,1.152-0.196c0.979,0.124,1.763,1.193,2.719,1.352
	c0.43-0.047,0.841-0.203,1.193-0.453c-0.25-0.446-0.725-0.67-1.088-1.019c-1.047-1.033-1.779-2.414-2.689-3.716
	c1.016-1.428,4.916-0.932,5.031-2.882c-0.036-0.138-0.068-0.275-0.105-0.413c-4.455-1.736-10.077-1.396-14.34-3.404
	c-1.482-0.297-3.437-0.138-5.401,0.511c-2.621,0.862-5.177,1.504-6.938,0.489c2.922-1.762,4.844-4.093,6.91-6.348
	c-0.039-0.536-0.355-1.012-0.834-1.254c-0.748-0.028-1.492,0.116-2.176,0.42c-4.241-1.088-9.914-0.022-14.678,1.852
	c-0.574,0.185-1.137,0.408-1.682,0.667c-0.482,0.279-0.809,0.863-1.254,1.269c-0.943,0.834-1.948,1.596-3.006,2.28
	c-0.521,0.416-1.088,0.772-1.689,1.062c-0.453,0.152-1.087,0.054-1.664,0.116c-1.242,0.114-2.463,0.403-3.625,0.859
	c2.781-3.165,5.076-6.619,4.93-11.459c-0.316,0.219-0.647,0.416-0.989,0.591c-1.164,0.518-2.596,0.562-3.796,0.96
	c-0.642,0.221-1.355,0.543-1.979,0.808c-1.399,0.584-2.36,1.704-3.701,2.143C57.571,3.85,56.632,1.86,56.038,0l-0.362,0.094
	c-1.639,1.657-3.451,3.034-4.945,5.075c-1.043,1.386-1.739,3.002-2.03,4.712c-0.083,0.58-0.131,1.588,0.051,2.016
	c0.126,0.304,0.612,0.322,0.743,0.725c0.199,0.624-0.62,1.352-0.943,1.783c-0.444,0.542-0.742,1.188-0.866,1.878
	c-1.845,0.272-3.157,1.182-4.31,1.921c-0.552,0.307-1.083,0.648-1.591,1.022c-1.222,1.055-1.9,2.842-3.799,3.215
	c0.04-0.518,0.565-0.793,0.841-1.16c0.362-0.504,0.515-1.087,0.837-1.588c0.591-3.128,0.047-6.909,2.853-8.765
	c0.116-0.656,0.243-1.921-0.471-2.396c-2.946,1.349-5.643,3.188-7.975,5.438c-1.611,1.49-2.915,3.282-3.835,5.274
	c-0.156,0.333-0.246,0.689-0.38,1.033c-0.297,0.747-0.761,1.476-1.015,2.139c-0.486,1.222-0.475,2.65-0.471,4.176
	c0,1.45-0.102,2.922-0.551,4.096c-0.124,0.33-0.417,0.848-0.667,1.609L26.827,33.996z"/>
<path fill="#FFFFFF" d="M101.173,94.012c-0.573,0.619-1.175,1.055-1.37,1.49c-2.81,1.065-5.568,2.334-7.17,4.11
	c-0.213,0.277-0.41,0.567-0.592,0.866c-0.627,0.874-1.576,2.074-3.081,2.418c-2.737,0.62-5.354-0.326-7.572-0.877
	c-0.631,0.119-1.132,0.492-1.683,0.67c-4.386,1.451-8.674,0.196-13.09,1.045c-1.182,0.221-3.784,0.682-4.009,1.616
	c-0.033,0.306,0.013,0.614,0.134,0.896c1.06,0.189,2.09,0.521,3.06,0.99c0.935,0.482,1.819,1.054,2.643,1.707
	c1.345,0.961,3.067,1.088,4.317,2.175c-2.704,0.569-5.844,1.863-8.442,2.044c-1.281,0.129-2.573-0.094-3.738-0.645
	c-2.197-1.377-3.487-4.328-5.546-5.967c-2.103-0.91-4.245-1.762-6.319-2.736c-1.686,0-3.672-0.099-5.564-0.109
	c-1.087,0-2.291-0.362-2.693,0.779c0.149,1.088,0.961,1.196,1.708,1.682c0.485,0.318,0.947,0.671,1.381,1.055
	c0.881,0.855,1.667,1.802,2.345,2.824c0.046,0.063,0.098,0.121,0.156,0.174c1.196,1.266,3.143,1.78,4.085,3.184
	c-3.339,0.444-6.736-0.051-9.809-1.429c-1.812-0.83-3.034-1.588-3.81-4.18c-0.104-0.431-0.185-0.868-0.239-1.309
	c-0.058-0.421-0.043-1.087-0.305-1.345c-1.016-0.996-1.932-2.089-2.737-3.263c-2.414-3.64-4.684-7.855-9.479-7.384
	c-0.176,0.309-0.218,0.678-0.116,1.018c0.098,0.244,0.362,0.33,0.522,0.516c1.675,1.87,2.091,5.412,2.661,8.497
	c-1.45-0.138-2.9-1.7-3.676-3.074c-1.479-2.661-2.349-5.956-4.085-8.105c-0.326-0.444-0.689-0.859-1.087-1.239
	c-0.127-0.113-0.344-0.143-0.457-0.27c-0.154-0.224-0.292-0.459-0.413-0.703c-2.149-3.092-6.043-3.179-9.284-4.803
	c-0.362,0.076-0.482,0.297-0.7,0.461c0.145,0.525,0.283,1.062,0.424,1.591c1.341,3.832,3.262,7.765,5.22,10.487
	c0.705,1.061,1.637,1.951,2.73,2.606c1.431,0.791,2.956,1.399,4.539,1.812c1.073,0.25,2.104,0.657,3.06,1.207
	c0.716,1.214,1.797,2.172,3.088,2.737c0.388,0.67,1.015,0.936,1.53,1.396c-1.229-0.226-2.244-0.932-3.4-1.45
	c-1.066-0.468-2.367-1.088-3.792-0.845c-0.375,0.114-0.762,0.181-1.152,0.2c-0.982-0.127-1.758-1.197-2.719-1.359
	c-0.43,0.058-0.837,0.224-1.186,0.481c0.247,0.453,0.725,0.671,1.087,1.019c1.055,1.033,1.784,2.422,2.693,3.723
	c-1.022,1.422-4.916,0.928-5.035,2.9c0.033,0.138,0.073,0.271,0.112,0.41c4.434,1.721,10.063,1.373,14.33,3.389
	c1.482,0.297,3.437,0.138,5.401-0.515c2.617-0.862,5.173-1.501,6.935-0.489c-2.922,1.762-4.847,4.093-6.906,6.352
	c0.043,0.531,0.364,1.002,0.845,1.235c0.748,0.032,1.492-0.11,2.175-0.417c4.245,1.062,9.911,0,14.678-1.852
	c0.578-0.186,1.142-0.41,1.689-0.671c0.479-0.272,0.801-0.862,1.254-1.269c0.946-0.831,1.949-1.594,3.001-2.284
	c0.52-0.414,1.085-0.769,1.686-1.055c0.46-0.152,1.087-0.062,1.671-0.12c1.237-0.113,2.451-0.4,3.607-0.855
	c-2.781,3.172-5.075,6.612-4.93,11.47c0.315-0.226,0.647-0.427,0.993-0.602c1.16-0.515,2.592-0.562,3.795-0.964
	c0.638-0.215,1.353-0.548,1.976-0.798c1.399-0.584,2.363-1.708,3.701-2.143c0.211,2.037,1.148,4.021,1.74,5.884l0.362-0.095
	c1.639-1.649,3.451-3.034,4.944-5.05c1.041-1.387,1.734-3.003,2.026-4.713c0.076-0.583,0.138-1.591-0.044-2.012
	c-0.133-0.308-0.615-0.326-0.746-0.725c-0.199-0.627,0.613-1.355,0.946-1.812c0.438-0.544,0.737-1.188,0.87-1.874
	c1.842-0.269,3.15-1.186,4.303-1.914c0.55-0.311,1.08-0.654,1.588-1.029c1.225-1.056,1.906-2.839,3.799-3.204
	c-0.036,0.511-0.565,0.779-0.838,1.145c-0.361,0.5-0.511,1.088-0.837,1.6c-0.591,3.128-0.051,6.912-2.856,8.765
	c-0.116,0.646-0.239,1.921,0.475,2.393c2.945-1.351,5.642-3.189,7.975-5.438c1.615-1.499,2.918-3.301,3.836-5.304
	c0.156-0.33,0.243-0.682,0.362-1.033c0.302-0.742,0.762-1.475,1.022-2.131c0.479-1.226,0.471-2.661,0.468-4.184
	c0-1.45,0.104-2.918,0.551-4.089c0.127-0.334,0.421-0.853,0.671-1.61L101.173,94.012z"/>
</svg>
