<?xml version="1.0" encoding="UTF-8" standalone="no"?>
<!-- Created with Inkscape (http://www.inkscape.org/) -->

<svg
   xmlns:dc="http://purl.org/dc/elements/1.1/"
   xmlns:cc="http://creativecommons.org/ns#"
   xmlns:rdf="http://www.w3.org/1999/02/22-rdf-syntax-ns#"
   xmlns:svg="http://www.w3.org/2000/svg"
   xmlns="http://www.w3.org/2000/svg"
   xmlns:sodipodi="http://sodipodi.sourceforge.net/DTD/sodipodi-0.dtd"
   xmlns:inkscape="http://www.inkscape.org/namespaces/inkscape"
   id="svg2"
   version="1.1"
   inkscape:version="0.91 r13725"
   width="256.85992"
   height="361.57855"
   viewBox="0 0 256.85993 361.57856"
   sodipodi:docname="Latin_capital_letter_alternative_esh.svg">
  <metadata
     id="metadata8">
    <rdf:RDF>
      <cc:Work
         rdf:about="">
        <dc:format>image/svg+xml</dc:format>
        <dc:type
           rdf:resource="http://purl.org/dc/dcmitype/StillImage" />
        <dc:title></dc:title>
      </cc:Work>
    </rdf:RDF>
  </metadata>
  <defs
     id="defs6" />
  <sodipodi:namedview
     pagecolor="#ffffff"
     bordercolor="#666666"
     borderopacity="1"
     objecttolerance="10"
     gridtolerance="10"
     guidetolerance="10"
     inkscape:pageopacity="0"
     inkscape:pageshadow="2"
     inkscape:window-width="1366"
     inkscape:window-height="705"
     id="namedview4"
     showgrid="false"
     fit-margin-top="0"
     fit-margin-left="0"
     fit-margin-right="0"
     fit-margin-bottom="0"
     inkscape:zoom="1.3333333"
     inkscape:cx="154.89008"
     inkscape:cy="190.52079"
     inkscape:window-x="-8"
     inkscape:window-y="-8"
     inkscape:window-maximized="1"
     inkscape:current-layer="svg2" />
  <path
     style="fill:rgb(152, 2, 2)"
     d="m 51.219808,361.45767 c -10.05171,-0.55418 -22.40486,-3.49836 -30.63838,-7.30226 -6.03814,-2.78964 -12.02184,-7.42468 -15.47248,-11.98516 -3.78752,-5.00576 -5.74893999,-11.52302 -4.92158999,-16.35314 0.60789,-3.54888 2.32292999,-6.72318 5.13218999,-9.49918 4.06055,-4.01238 7.73208,-5.24855 13.6529,-4.59688 7.77319,0.85562 12.76106,4.85075 20.37114,16.31682 5.7695,8.69289 9.12762,11.91676 15.96794,15.32978 7.74515,3.86449 20.86664,4.62002 29.92828,1.72332 4.75484,-1.52 7.84414,-3.43005 11.52,-7.12257 7.973822,-8.01 12.190212,-19.69923 14.224682,-39.43551 1.16715,-11.32276 1.29992,-24.72686 1.21219,-122.4 -0.0811,-90.300609 -0.0446,-97.179309 0.54162,-101.864829 1.45425,-11.62478 3.89315,-19.82206 8.81258,-29.61974 6.6681,-13.28035 16.79429,-24.10966 28.89504,-30.90131 13.12348,-7.3656795 25.52256,-11.3364295 40.99389,-13.12808954 5.29149,-0.61278 7.69564,-0.72303 11.7,-0.53655 25.57414,1.19104004 44.89322,10.25540954 51.55754,24.19043954 1.71997,3.59647 2.54131,8.34591 1.9949,11.53585 -0.60789,3.5489 -2.3229,6.7232 -5.13219,9.49918 -4.06051,4.01237 -7.73208,5.24857 -13.65289,4.59687 -7.7732,-0.85559 -12.76107,-4.85076 -20.37114,-16.3168 -5.76951,-8.69289 -9.12762,-11.91677 -15.96795,-15.32978 -3.50064,-1.74665 -7.40189,-2.73362 -12.83983,-3.24827 -11.68405,-1.10582 -21.25541,1.58863 -27.92243,7.86051 -9.07002,8.53242 -13.59745,22.18591 -15.48626,46.70252 -0.33639,4.366 -0.45054,30.851829 -0.47178,109.439999 -0.0266,98.13761 -0.063,103.93934 -0.68289,108.5315 -1.2263,9.08417 -2.74899,15.2024 -5.46742,21.9685 -4.44071,11.05275 -9.73502,19.28372 -17.26751,26.84563 -6.4404,6.46549 -12.88685,10.86293 -22.652572,15.45242 -14.71421,6.91513 -32.3217,10.48669 -47.55758,9.64673 z"
     id="path3347"
     inkscape:connector-curvature="0" />
</svg>
